<svg width="426" height="283" viewBox="0 0 426 283" fill="none" xmlns="http://www.w3.org/2000/svg">
<path d="M238.249 133.87C235.209 136.91 231.769 139.28 228.089 140.99H268.529C272.419 134.33 274.989 127.12 276.279 119.73H246.899C245.219 124.9 242.349 129.76 238.239 133.87M263.509 78.3502L264.959 76.9002C262.409 72.9602 259.659 68.9502 256.189 65.4802C231.089 40.3902 193.059 37.7202 167.559 63.2102C146.459 84.3002 143.099 116.4 157.469 141H197.919C194.239 139.29 190.799 136.92 187.759 133.88C173.809 119.94 173.809 97.3402 187.759 83.4002C198.629 72.5302 212.439 71.1902 224.369 77.0902L196.719 104.73L216.919 124.92L243.939 97.9202L263.509 78.3602V78.3502Z" fill="#CC2229"/>
<path d="M110.229 183.35H95.0391C95.8291 179.77 99.0191 177.69 102.639 177.69C106.259 177.69 109.449 179.78 110.229 183.35ZM119.999 190.03C120.179 189.14 120.239 188.3 120.239 187.41C120.239 177.45 112.829 169.35 102.579 169.35C92.3291 169.35 85.0391 177.52 85.0391 187.12C85.0391 196.72 92.9991 204.65 102.759 204.65C110.089 204.65 115.879 200.07 118.849 193.72H108.399C106.889 195.41 105.229 196.3 102.759 196.3C98.8391 196.3 95.5291 193.98 94.9291 190.04H119.999V190.03ZM141.179 178.73H143.199V169.41C141.899 169.41 138.819 169.49 138.819 169.49C135.209 169.63 131.199 170.85 128.829 173.72C126.119 177.06 125.819 179.8 125.819 183.92V203.71H135.829V185.41C135.829 181.65 136.669 178.73 141.189 178.73M172.309 186.99C172.309 191.76 168.809 195.46 163.929 195.46C159.049 195.46 155.609 191.7 155.609 187.11C155.609 182.52 158.989 178.58 163.869 178.58C168.749 178.58 172.309 182.16 172.309 186.99ZM172.309 203.56H182.309V170.47H172.309V173.99H172.189C170.199 170.71 166.099 169.34 162.429 169.34C152.369 169.34 145.619 177.33 145.619 186.99C145.619 196.65 152.129 204.7 162.429 204.7C166.049 204.7 170.379 203.39 172.189 199.99H172.309V203.57V203.56ZM197.859 179.47C197.859 177.98 199.369 177.27 200.689 177.27C202.439 177.27 203.759 177.93 203.819 179.77H213.639C212.979 172.73 207.489 169.34 200.799 169.34C194.109 169.34 187.839 173.34 187.839 180.25C187.839 184.9 191.819 187.46 195.799 188.89C197.249 189.43 198.689 189.9 200.139 190.38C201.949 191.1 204.659 191.81 204.659 194.2C204.659 195.93 202.669 196.76 201.169 196.76C199.179 196.76 197.669 195.75 197.369 193.72H187.419C188.199 200.99 194.049 204.69 201.039 204.69C208.029 204.69 214.659 200.88 214.659 193.42C214.659 181.73 197.849 184.66 197.849 179.47M261.559 203.72H271.559V183.93C271.559 179.82 271.259 177.07 268.549 173.73C266.179 170.86 262.179 169.64 258.559 169.5C258.559 169.5 257.299 169.42 255.959 169.42C254.619 169.42 253.359 169.5 253.359 169.5C250.619 169.61 247.649 170.69 245.339 172.29C243.039 170.69 240.069 169.61 237.319 169.5C237.319 169.5 236.059 169.42 234.719 169.42C233.379 169.42 232.119 169.5 232.119 169.5C228.509 169.64 224.499 170.86 222.129 173.73C219.419 177.07 219.119 179.81 219.119 183.93V203.72H229.119V185.42C229.119 181.66 229.959 178.66 234.479 178.66H234.949C239.469 178.66 240.309 181.66 240.309 185.42V203.72H250.339V185.42C250.339 181.66 251.179 178.66 255.699 178.66H256.169C260.689 178.66 261.529 181.66 261.529 185.42V203.72H261.559ZM305.629 200.46C308.339 197.12 308.639 194.38 308.639 190.26V170.47H298.639V188.77C298.639 192.53 297.799 195.52 293.279 195.52H292.809C288.289 195.52 287.449 192.52 287.449 188.77V170.47H277.449V190.26C277.449 194.37 277.749 197.12 280.459 200.46C282.829 203.33 286.849 204.55 290.449 204.69C290.449 204.69 291.749 204.77 293.049 204.77C294.349 204.77 295.649 204.69 295.649 204.69C299.269 204.55 303.269 203.33 305.639 200.46M329.309 179.77H339.129C338.469 172.73 332.979 169.34 326.289 169.34C319.599 169.34 313.329 173.34 313.329 180.25C313.329 184.9 317.309 187.46 321.289 188.89C322.739 189.43 324.179 189.9 325.629 190.38C327.439 191.1 330.149 191.81 330.149 194.2C330.149 195.93 328.159 196.76 326.649 196.76C324.659 196.76 323.159 195.75 322.849 193.72H312.909C313.689 200.99 319.539 204.69 326.529 204.69C333.519 204.69 340.149 200.88 340.149 193.42C340.149 181.73 323.339 184.66 323.339 179.47C323.339 177.98 324.849 177.27 326.169 177.27C327.919 177.27 329.239 177.93 329.299 179.77" fill="white"/>
<path d="M95.8584 233.19V226.99H89.9784V233.19H87.8984V218.94H89.9784V225.08H95.8584V218.94H97.9284V233.19H95.8584Z" fill="white"/>
<path d="M109.332 233.46C105.252 233.46 101.922 230.15 101.922 226.07C101.922 221.99 105.232 218.68 109.332 218.68C113.432 218.68 116.742 221.97 116.742 226.11C116.742 230.25 113.392 233.47 109.332 233.47M109.332 220.58C107.122 220.58 105.362 221.78 104.502 223.8C104.192 224.51 104.002 225.28 104.002 226.07C104.002 226.86 104.192 227.65 104.502 228.38C105.392 230.38 107.142 231.56 109.332 231.56C111.682 231.56 113.492 230.21 114.302 228.04C114.532 227.44 114.672 226.79 114.672 226.13C114.672 223.11 112.442 220.58 109.342 220.58" fill="white"/>
<path d="M130.349 232.77C129.389 233.21 128.309 233.46 127.249 233.46C123.169 233.46 119.949 230.17 119.949 226.1C119.949 222.03 123.109 218.67 127.229 218.67C129.909 218.67 132.349 220.17 133.619 222.52H131.189C130.129 221.33 128.939 220.57 127.299 220.57C124.299 220.57 122.019 223.17 122.019 226.1C122.019 229.03 124.369 231.55 127.319 231.55C129.589 231.55 131.419 230.11 132.229 228.01H125.589V226.1H134.599C134.559 229.03 133.039 231.53 130.339 232.76" fill="white"/>
<path d="M138.281 233.19V218.94H145.961V220.85H140.361V225.05H145.961V226.95H140.361V231.29H145.961V233.19H138.281Z" fill="white"/>
<path d="M153.468 233.46C150.868 233.46 149.078 231.55 149.078 228.97H151.158C151.158 230.36 151.968 231.55 153.468 231.55C154.888 231.55 155.758 230.53 155.758 229.14C155.758 227.62 154.658 227.27 153.468 226.81C151.258 225.96 149.478 225.31 149.478 222.53C149.478 220.32 151.288 218.66 153.468 218.66C155.838 218.66 157.548 220.22 157.548 222.63H155.468C155.468 221.4 154.698 220.57 153.468 220.57C152.428 220.57 151.558 221.48 151.558 222.52C151.558 225.54 157.838 223.73 157.838 229.15C157.838 231.71 156.008 233.46 153.468 233.46Z" fill="white"/>
<path d="M172.321 222.58C171.261 221.35 169.991 220.58 168.311 220.58C165.311 220.58 163.021 223.06 163.021 226.03C163.021 229 165.311 231.56 168.281 231.56C169.781 231.56 171.211 230.81 172.171 229.67H174.731C173.381 232.04 170.991 233.46 168.261 233.46C164.201 233.46 160.941 230.03 160.941 226.01C160.941 221.99 164.211 218.67 168.281 218.67C169.801 218.67 171.401 219.17 172.631 220.06C173.631 220.77 174.231 221.52 174.821 222.58H172.321Z" fill="white"/>
<path d="M186.429 233.19V226.99H180.549V233.19H178.469V218.94H180.549V225.08H186.429V218.94H188.499V233.19H186.429Z" fill="white"/>
<path d="M199.898 233.46C195.818 233.46 192.488 230.15 192.488 226.07C192.488 221.99 195.798 218.68 199.898 218.68C203.998 218.68 207.308 221.97 207.308 226.11C207.308 230.25 203.958 233.47 199.898 233.47M199.898 220.58C197.688 220.58 195.928 221.78 195.068 223.8C194.758 224.51 194.568 225.28 194.568 226.07C194.568 226.86 194.758 227.65 195.068 228.38C195.958 230.38 197.708 231.56 199.898 231.56C202.248 231.56 204.058 230.21 204.868 228.04C205.098 227.44 205.238 226.79 205.238 226.13C205.238 223.11 203.008 220.58 199.908 220.58" fill="white"/>
<path d="M217.961 233.46C213.881 233.46 210.551 230.15 210.551 226.07C210.551 221.99 213.861 218.68 217.961 218.68C222.061 218.68 225.371 221.97 225.371 226.11C225.371 230.25 222.021 233.47 217.961 233.47M217.961 220.58C215.751 220.58 213.991 221.78 213.131 223.8C212.821 224.51 212.631 225.28 212.631 226.07C212.631 226.86 212.821 227.65 213.131 228.38C214.011 230.38 215.771 231.56 217.961 231.56C220.311 231.56 222.121 230.21 222.931 228.04C223.161 227.44 223.301 226.79 223.301 226.13C223.301 223.11 221.071 220.58 217.971 220.58" fill="white"/>
<path d="M229.41 233.19V218.94H231.49V231.29H236.44V233.19H229.41Z" fill="white"/>
<path d="M262.689 230.77C261.899 232.58 260.149 233.2 258.299 233.2H254.039V218.95H257.739C259.549 218.95 261.209 219.57 261.899 221.34C262.089 221.84 262.189 222.38 262.189 222.9C262.189 224.08 261.789 224.84 260.919 225.6C262.269 226.37 263.039 227.47 263.039 229.06C263.039 229.66 262.919 230.24 262.689 230.77ZM257.699 220.85H256.119V224.88H257.819C259.169 224.88 260.109 224.3 260.109 222.88C260.109 221.36 259.029 220.86 257.699 220.86M260.459 227.65C259.859 226.86 259.059 226.78 258.129 226.78H256.129V231.29H258.379C259.729 231.29 260.959 230.52 260.959 229.06C260.959 228.56 260.769 228.04 260.459 227.66" fill="white"/>
<path d="M273.781 227.61C273.361 227.76 272.861 227.88 272.391 227.88L276.381 233.19H273.781L269.081 226.58H269.041V233.19H266.961V218.94H271.371C272.721 218.94 274.161 219.15 275.161 220.14C276.071 221.01 276.471 222.28 276.471 223.51C276.471 225.44 275.621 226.96 273.771 227.61M271.241 220.85H269.041V226.3H270.471C272.321 226.3 274.401 225.78 274.401 223.51C274.401 221.7 272.901 220.85 271.241 220.85Z" fill="white"/>
<path d="M288.43 232.25C287.53 233.06 286.31 233.46 285.1 233.46C283.89 233.46 282.67 233.06 281.77 232.25C280.71 231.31 280.32 229.98 280.32 228.59V218.94H282.4V228.53C282.4 230.23 283.33 231.55 285.1 231.55C286.87 231.55 287.8 230.22 287.8 228.53V218.94H289.88V228.59C289.88 229.98 289.5 231.3 288.43 232.25Z" fill="white"/>
<path d="M297.98 233.46C295.38 233.46 293.59 231.55 293.59 228.97H295.67C295.67 230.36 296.48 231.55 297.98 231.55C299.4 231.55 300.27 230.53 300.27 229.14C300.27 227.62 299.17 227.27 297.98 226.81C295.77 225.96 293.99 225.31 293.99 222.53C293.99 220.32 295.8 218.66 297.98 218.66C300.35 218.66 302.06 220.22 302.06 222.63H299.98C299.98 221.4 299.21 220.57 297.98 220.57C296.94 220.57 296.07 221.48 296.07 222.52C296.07 225.54 302.35 223.73 302.35 229.15C302.35 231.71 300.52 233.46 297.98 233.46Z" fill="white"/>
<path d="M309.812 233.46C307.212 233.46 305.422 231.55 305.422 228.97H307.502C307.502 230.36 308.312 231.55 309.812 231.55C311.312 231.55 312.102 230.53 312.102 229.14C312.102 227.62 311.002 227.27 309.812 226.81C307.602 225.96 305.822 225.31 305.822 222.53C305.822 220.32 307.632 218.66 309.812 218.66C312.182 218.66 313.892 220.22 313.892 222.63H311.812C311.812 221.4 311.042 220.57 309.812 220.57C308.772 220.57 307.902 221.48 307.902 222.52C307.902 225.54 314.182 223.73 314.182 229.15C314.182 231.71 312.352 233.46 309.812 233.46Z" fill="white"/>
<path d="M318.09 233.19V218.94H325.77V220.85H320.17V225.05H325.77V226.95H320.17V231.29H325.77V233.19H318.09Z" fill="white"/>
<path d="M330.102 233.19V218.94H332.182V231.29H337.132V233.19H330.102Z" fill="white"/>
</svg>
