<?xml version="1.0" encoding="UTF-8"?>
<svg id="Layer_1" data-name="Layer 1" xmlns="http://www.w3.org/2000/svg" version="1.1" viewBox="0 0 544 119">
  <defs>
    <style>
      .cls-1 {
        fill: #000;
      }

      .cls-1, .cls-2 {
        stroke-width: 0px;
      }

      .cls-2 {
        fill: #fff;
      }
    </style>
  </defs>
  <rect class="cls-1" width="544" height="119"/>
  <g>
    <path class="cls-2" d="M208.6,27.9h27.6c16.1,0,26.6,8.3,26.6,22.5v.2c0,15.2-11.6,23.2-27.5,23.2h-8.9v18.3h-17.8V27.9ZM234.9,59.8c6.2,0,10.2-3.3,10.2-8.4v-.2c0-5.5-3.9-8.3-10.3-8.3h-8.4v17h8.5Z"/>
    <polygon class="cls-2" points="184.5 39.7 171.7 26.9 151.3 47.2 131 26.9 118.2 39.7 138.5 60 118.2 80.3 131 93.1 151.3 72.8 171.7 93.1 184.5 80.3 164.1 60 184.5 39.7"/>
    <g>
      <rect class="cls-2" x="60" y="7" width="14.1" height="56.4" transform="translate(102.3 -31.8) rotate(90)"/>
      <rect class="cls-2" x="59.4" y="56.5" width="14.5" height="56.2" transform="translate(151.2 17.9) rotate(90)"/>
      <rect class="cls-2" x="59.7" y="31.9" width="14.1" height="56.4" transform="translate(126.9 -6.7) rotate(90)"/>
    </g>
    <path class="cls-2" d="M316.7,43.1c9.3,0,16.9,7.6,16.9,16.9s-7.6,16.9-16.9,16.9-16.9-7.6-16.9-16.9,7.6-16.9,16.9-16.9M316.7,27.1c-18.1,0-32.9,14.7-32.9,32.9s14.7,32.9,32.9,32.9,32.9-14.7,32.9-32.9-14.7-32.9-32.9-32.9h0Z"/>
    <path class="cls-2" d="M371.5,79.3l24-18.3c6-4.7,8.3-7.7,8.3-11.6s-2.8-6.5-7.2-6.5-7.7,2.5-12.7,8.3l-12-10c6.9-8.9,13.7-13.8,26.1-13.8s23.7,8.3,23.7,20.5v.2c0,10.3-5.3,15.6-14.9,22.5l-11,7.7h26.5v14.5h-50.8v-13.4Z"/>
    <path class="cls-2" d="M481,79.9h-31.1l-2.9-12.6,33.3-39.6h18v38.9h8.2v13.3h-8.2v12.5h-17.2v-12.5ZM481,66.7v-18.4l-15.3,18.4h15.3Z"/>
  </g>
</svg>