<svg width="750" height="108" viewBox="0 0 750 108" fill="none" xmlns="http://www.w3.org/2000/svg">
<path d="M267.608 1.6748H312.304C338.442 1.6748 355.365 15.035 355.365 38.0631V38.3546C355.365 63.0021 336.498 75.925 310.814 75.925H296.402V105.625H267.592V1.6748H267.608ZM310.231 53.3666C320.337 53.3666 326.717 48.0225 326.717 39.6987V39.4072C326.717 30.5004 320.337 25.8851 310.086 25.8851H296.418V53.3666H310.231Z" fill="black"/>
<path d="M228.6 20.7426L207.862 0.00488281L121.304 86.563L142.042 107.301L228.6 20.7426Z" fill="black"/>
<path d="M207.876 107.296L228.614 86.5581L142.056 3.39431e-06L121.318 20.7378L207.876 107.296Z" fill="black"/>
<path d="M82.9303 24.9639V2.08154L0.453461 2.08154V24.9639L82.9303 24.9639Z" fill="black"/>
<path d="M82.2015 105.253V81.7068H-2.28882e-05V105.253H82.2015Z" fill="black"/>
<path d="M82.4769 65.2537V42.3713L9.15527e-05 42.3713V65.2537H82.4769Z" fill="black"/>
<path d="M442.797 26.3542C457.857 26.3542 470.1 38.597 470.1 53.6576C470.1 68.7182 457.857 80.9609 442.797 80.9609C427.736 80.9609 415.493 68.7182 415.493 53.6576C415.493 38.597 427.736 26.3542 442.797 26.3542ZM442.797 0.443604C413.404 0.443604 389.583 24.2652 389.583 53.6576C389.583 83.05 413.404 106.872 442.797 106.872C472.189 106.872 496.011 83.05 496.011 53.6576C496.011 24.2652 472.189 0.443604 442.797 0.443604Z" fill="black"/>
<path d="M531.541 84.8481L570.455 55.148C580.107 47.5691 583.815 42.6785 583.815 36.4437C583.815 30.209 579.216 25.9013 572.237 25.9013C565.257 25.9013 559.767 29.9175 551.589 39.2615L532.14 23.0673C543.282 8.65453 554.261 0.78418 574.471 0.78418C597.192 0.78418 612.787 14.3063 612.787 33.9012V34.1928C612.787 50.8242 604.172 59.4394 588.722 70.581L570.909 83.0505H613.823V106.516H531.557V84.8319L531.541 84.8481Z" fill="black"/>
<path d="M708.867 85.8031H658.519L653.774 65.4633L707.685 1.302H736.786V64.2649H750V85.8031H736.786V105.997H708.867V85.8031ZM708.867 64.4268V34.581L684.073 64.4268H708.867Z" fill="black"/>
<path d="M267.608 1.6748H312.304C338.442 1.6748 355.365 15.035 355.365 38.0631V38.3546C355.365 63.0021 336.498 75.925 310.814 75.925H296.402V105.625H267.592V1.6748H267.608ZM310.231 53.3666C320.337 53.3666 326.717 48.0225 326.717 39.6987V39.4072C326.717 30.5004 320.337 25.8851 310.086 25.8851H296.418V53.3666H310.231Z" fill="black"/>
<path d="M228.6 20.7426L207.862 0.00488281L121.304 86.563L142.042 107.301L228.6 20.7426Z" fill="black"/>
<path d="M207.876 107.296L228.614 86.5581L142.056 3.39431e-06L121.318 20.7378L207.876 107.296Z" fill="black"/>
<path d="M82.9303 24.9639V2.08154L0.453461 2.08154V24.9639L82.9303 24.9639Z" fill="black"/>
<path d="M82.2015 105.253V81.7068H-2.28882e-05V105.253H82.2015Z" fill="black"/>
<path d="M82.4769 65.2537V42.3713L9.15527e-05 42.3713V65.2537H82.4769Z" fill="black"/>
<path d="M442.797 26.3542C457.857 26.3542 470.1 38.597 470.1 53.6576C470.1 68.7182 457.857 80.9609 442.797 80.9609C427.736 80.9609 415.493 68.7182 415.493 53.6576C415.493 38.597 427.736 26.3542 442.797 26.3542ZM442.797 0.443604C413.404 0.443604 389.583 24.2652 389.583 53.6576C389.583 83.05 413.404 106.872 442.797 106.872C472.189 106.872 496.011 83.05 496.011 53.6576C496.011 24.2652 472.189 0.443604 442.797 0.443604Z" fill="black"/>
<path d="M531.541 84.8481L570.455 55.148C580.107 47.5691 583.815 42.6785 583.815 36.4437C583.815 30.209 579.216 25.9013 572.237 25.9013C565.257 25.9013 559.767 29.9175 551.589 39.2615L532.14 23.0673C543.282 8.65453 554.261 0.78418 574.471 0.78418C597.192 0.78418 612.787 14.3063 612.787 33.9012V34.1928C612.787 50.8242 604.172 59.4394 588.722 70.581L570.909 83.0505H613.823V106.516H531.557V84.8319L531.541 84.8481Z" fill="black"/>
<path d="M708.867 85.8031H658.519L653.774 65.4633L707.685 1.302H736.786V64.2649H750V85.8031H736.786V105.997H708.867V85.8031ZM708.867 64.4268V34.581L684.073 64.4268H708.867Z" fill="black"/>
</svg>
