<?xml version="1.0" encoding="utf-8"?>
<!-- Generator: Adobe Illustrator 28.0.0, SVG Export Plug-In . SVG Version: 6.00 Build 0)  -->
<svg version="1.1" id="Layer_1" xmlns="http://www.w3.org/2000/svg" xmlns:xlink="http://www.w3.org/1999/xlink" x="0px" y="0px"
	 viewBox="0 0 544 119" style="enable-background:new 0 0 544 119;" xml:space="preserve">
<style type="text/css">
	.st0{fill:#FFFFFF;}
</style>
<g>
	<path class="st0" d="M208.6,27.9h27.6c16.1,0,26.6,8.3,26.6,22.5v0.2c0,15.2-11.6,23.2-27.5,23.2h-8.9v18.3h-17.8L208.6,27.9
		L208.6,27.9z M234.9,59.8c6.2,0,10.2-3.3,10.2-8.4v-0.2c0-5.5-3.9-8.3-10.3-8.3h-8.4v17h8.5V59.8z"/>
	<polygon class="st0" points="184.5,39.7 171.7,26.9 151.3,47.2 131,26.9 118.2,39.7 138.5,60 118.2,80.3 131,93.1 151.3,72.8 
		171.7,93.1 184.5,80.3 164.1,60 	"/>
	<g>
		<rect x="38.9" y="28.2" class="st0" width="56.4" height="14.1"/>
		<rect x="38.5" y="77.3" class="st0" width="56.2" height="14.5"/>
		<rect x="38.6" y="53" class="st0" width="56.4" height="14.1"/>
	</g>
	<path class="st0" d="M316.7,43.1c9.3,0,16.9,7.6,16.9,16.9s-7.6,16.9-16.9,16.9s-16.9-7.6-16.9-16.9S307.4,43.1,316.7,43.1
		 M316.7,27.1c-18.1,0-32.9,14.7-32.9,32.9s14.7,32.9,32.9,32.9s32.9-14.7,32.9-32.9S334.9,27.1,316.7,27.1
		C316.7,27.1,316.7,27.1,316.7,27.1z"/>
	<path class="st0" d="M371.5,79.3l24-18.3c6-4.7,8.3-7.7,8.3-11.6s-2.8-6.5-7.2-6.5s-7.7,2.5-12.7,8.3l-12-10
		c6.9-8.9,13.7-13.8,26.1-13.8s23.7,8.3,23.7,20.5v0.2c0,10.3-5.3,15.6-14.9,22.5l-11,7.7h26.5v14.5h-50.8V79.3L371.5,79.3z"/>
	<path class="st0" d="M481,79.9h-31.1L447,67.3l33.3-39.6h18v38.9h8.2v13.3h-8.2v12.5h-17.2L481,79.9L481,79.9z M481,66.7V48.3
		l-15.3,18.4H481z"/>
</g>
</svg>
